HIERARCHY
ROOT Hips
{
 OFFSET 0.000000 0.000000 0.000000
 CHANNELS 6 Xposition Yposition Zposition Yrotation Xrotation Zrotation
 JOINT Chest
 {
  OFFSET 0.000000 9.585900 0.002600
  CHANNELS 3 Yrotation Xrotation Zrotation
  JOINT Chest2
  {
   OFFSET 0.000000 9.601200 -0.005300
   CHANNELS 3 Yrotation Xrotation Zrotation
   JOINT Chest3
   {
    OFFSET 0.000000 9.561800 0.000000
    CHANNELS 3 Yrotation Xrotation Zrotation
    JOINT Chest4
    {
     OFFSET 0.000000 9.552100 0.000000
     CHANNELS 3 Yrotation Xrotation Zrotation
     JOINT Neck
     {
      OFFSET 0.000000 14.453000 0.000000
      CHANNELS 3 Yrotation Xrotation Zrotation
      JOINT Head
      {
       OFFSET 0.000000 8.936500 -0.011300
       CHANNELS 3 Yrotation Xrotation Zrotation
       End Site
       {
        OFFSET 0.000000 17.073600 -0.006000
       }
      }
     }
     JOINT RightCollar
     {
      OFFSET -2.921100 9.558500 0.000000
      CHANNELS 3 Yrotation Xrotation Zrotation
      JOINT RightShoulder
      {
       OFFSET -13.519700 0.000000 0.000000
       CHANNELS 3 Yrotation Xrotation Zrotation
       JOINT RightElbow
       {
        OFFSET 0.000000 -29.696600 0.000000
        CHANNELS 3 Yrotation Xrotation Zrotation
        JOINT RightWrist
        {
         OFFSET 0.000000 -24.004700 0.000000
         CHANNELS 3 Yrotation Xrotation Zrotation
         End Site
         {
          OFFSET 0.000000 -17.728500 0.000000
         }
        }
       }
      }
     }
     JOINT LeftCollar
     {
      OFFSET 2.921100 9.558500 0.000000
      CHANNELS 3 Yrotation Xrotation Zrotation
      JOINT LeftShoulder
      {
       OFFSET 13.519700 0.000000 0.000000
       CHANNELS 3 Yrotation Xrotation Zrotation
       JOINT LeftElbow
       {
        OFFSET 0.000000 -29.696600 0.000000
        CHANNELS 3 Yrotation Xrotation Zrotation
        JOINT LeftWrist
        {
         OFFSET 0.000000 -24.004700 0.000000
         CHANNELS 3 Yrotation Xrotation Zrotation
         End Site
         {
          OFFSET 0.000000 -17.728500 0.000000
         }
        }
       }
      }
     }
    }
   }
  }
 }
 JOINT RightHip
 {
  OFFSET -7.771700 -0.012900 -0.001300
  CHANNELS 3 Yrotation Xrotation Zrotation
  JOINT RightKnee
  {
   OFFSET 0.000000 -40.869800 0.001200
   CHANNELS 3 Yrotation Xrotation Zrotation
   JOINT RightAnkle
   {
    OFFSET 0.000000 -39.717900 0.002100
    CHANNELS 3 Yrotation Xrotation Zrotation
    JOINT RightToe
    {
     OFFSET 0.000000 -4.965400 11.033500
     CHANNELS 3 Yrotation Xrotation Zrotation
     End Site
     {
      OFFSET 0.000000 -1.423100 5.872300
     }
    }
   }
  }
 }
 JOINT LeftHip
 {
  OFFSET 7.771700 -0.012900 -0.001300
  CHANNELS 3 Yrotation Xrotation Zrotation
  JOINT LeftKnee
  {
   OFFSET 0.000000 -40.869800 0.001200
   CHANNELS 3 Yrotation Xrotation Zrotation
   JOINT LeftAnkle
   {
    OFFSET 0.000000 -39.717900 0.002100
    CHANNELS 3 Yrotation Xrotation Zrotation
    JOINT LeftToe
    {
     OFFSET 0.000000 -4.965400 11.033500
     CHANNELS 3 Yrotation Xrotation Zrotation
     End Site
     {
      OFFSET 0.000000 -1.423100 5.872300
     }
    }
   }
  }
 }
}
MOTION
Frames: 8
Frame Time: 0.008333
0.000000 85.388000 0.000000 0.000000 -5.767877 0.000000 0.000000 11.653817 0.000000 0.000000 -5.885947 0.000000 0.000000 -0.000000 0.000000 0.000000 -0.000000 0.000000 0.000000 12.528835 0.000000 0.000000 0.711642 0.000000 0.000000 -0.000000 0.000000 0.000000 0.000000 -90.000000 0.000000 -2.309062 0.000000 0.000000 2.309062 0.000000 0.000000 -0.000000 0.000000 0.000000 -0.000000 90.000000 0.000000 -2.309062 0.000000 0.000000 2.309062 0.000000 0.000000 8.520406 0.000000 0.000000 1.905762 0.000000 -0.000000 -4.658285 0.000000 0.000000 -0.000000 0.000000 0.000000 8.520406 0.000000 0.000000 1.905762 0.000000 -0.000000 -4.658285 0.000000 0.000000 -0.000000 0.000000
-2.824228 52.224675 33.557726 170.026590 -36.339485 -1.387559 4.109010 24.154274 2.961999 0.493095 3.746780 0.530063 0.821088 5.939539 0.869800 3.158844 20.107673 3.348981 0.526428 14.629235 -1.811277 1.672409 -8.590124 -3.596000 -3.581742 -1.684889 -3.572329 -11.116822 -9.448660 2.447642 -96.084160 -32.655995 129.279380 -1.437803 11.207198 57.956527 -6.605607 -1.182421 -0.386318 10.193790 -13.292807 2.319694 83.750557 -28.390780 -131.120562 16.867353 6.835395 -33.208377 -4.543893 -45.023619 3.266112 -136.491839 86.174007 -131.939850 -0.335793 -10.122372 -4.672203 0.433543 -0.849239 0.186760 1.721639 -41.198227 5.786719 75.247181 83.325740 65.131265 -6.108626 -13.659518 9.845026 0.388666 1.534764 0.198558
-2.819912 52.224698 33.553982 169.963736 -36.360847 -1.341760 4.141738 24.211885 2.942881 0.482508 3.807093 0.525175 0.836439 5.911991 0.874851 3.158238 20.226952 3.342618 0.547760 14.631524 -1.796418 1.706778 -8.585619 -3.576261 -3.591161 -1.691004 -3.555441 -11.065651 -9.585853 2.456740 -96.104782 -32.869416 128.970188 -1.453204 11.122370 57.574309 -6.649865 -1.156881 -0.345415 10.097862 -13.351059 2.391841 83.714062 -28.462928 -130.790866 16.736887 6.881439 -33.116908 -4.509849 -45.009819 3.264763 -136.559899 86.169530 -132.014535 -0.334948 -10.125293 -4.669704 0.434482 -0.847612 0.178547 1.795125 -41.167753 5.817264 75.275974 83.373875 65.089084 -6.039119 -13.662291 9.932600 0.297788 1.505429 0.160155
-2.808439 52.223520 33.552991 169.924370 -36.371074 -1.347999 4.157139 24.306945 2.949655 0.502859 3.768331 0.533254 0.815085 6.096229 0.866098 3.183452 20.178707 3.332900 0.566770 14.634773 -1.780075 1.736081 -8.579420 -3.552650 -3.608734 -1.688672 -3.534100 -10.969549 -9.642197 2.440570 -96.187683 -33.052778 128.739200 -1.446261 11.044948 57.222223 -6.695376 -1.120372 -0.303070 9.995770 -13.393345 2.473376 83.709174 -28.551064 -130.473813 16.602812 6.917593 -32.959615 -4.516054 -45.000071 3.312269 -136.503400 86.166557 -131.949682 -0.321360 -10.119902 -4.680429 0.422485 -0.850910 0.178815 1.823734 -41.146341 5.920851 75.087081 83.450072 64.869481 -6.102339 -13.676764 9.952273 0.345350 1.519374 0.193094
-2.799853 52.220690 33.553495 169.910565 -36.366882 -1.348509 4.149246 24.385200 2.936743 0.516959 3.732690 0.540401 0.809496 6.208761 0.860719 3.193830 20.198071 3.323265 0.583123 14.639446 -1.762052 1.759708 -8.570598 -3.524770 -3.633222 -1.678502 -3.509674 -10.874249 -9.684670 2.424186 -96.247046 -33.229767 128.505419 -1.426272 10.980445 56.896107 -6.741698 -1.073103 -0.259710 9.891737 -13.421120 2.558199 83.730339 -28.655839 -130.169818 16.469518 6.948936 -32.723938 -4.551094 -45.006968 3.329632 -136.536856 86.161134 -131.960114 -0.343594 -10.106246 -4.733398 0.469319 -0.870000 0.195109 1.844942 -41.140414 5.989812 74.902584 83.517574 64.672072 -6.220434 -13.710421 9.942618 0.446800 1.564238 0.248185
-2.791902 52.218369 33.553342 169.886969 -36.369417 -1.335463 4.156283 24.450959 2.924616 0.509147 3.823047 0.532661 0.825153 6.177177 0.866544 3.197599 20.247951 3.314050 0.597656 14.648256 -1.741781 1.778971 -8.554311 -3.492024 -3.662908 -1.658671 -3.486109 -10.790371 -9.738248 2.417019 -96.254270 -33.408108 128.238218 -1.396334 10.930107 56.597166 -6.787471 -1.016244 -0.217682 9.793891 -13.434762 2.641631 83.766147 -28.775071 -129.880767 16.341208 6.981056 -32.426554 -4.571113 -45.010956 3.341240 -136.716406 86.162334 -132.135680 -0.344481 -10.097626 -4.744415 0.476937 -0.880332 0.184191 1.878819 -41.130742 6.037454 74.754795 83.576287 64.487659 -6.226428 -13.711917 9.976350 0.444637 1.564467 0.236746
-2.783617 52.216389 33.553337 169.862936 -36.375512 -1.323377 4.169022 24.503684 2.919288 0.505185 3.881467 0.529551 0.836015 6.131626 0.869357 3.196577 20.351637 3.308662 0.611820 14.664664 -1.719095 1.796359 -8.524087 -3.454498 -3.695608 -1.628119 -3.465772 -10.705622 -9.773935 2.411458 -96.235889 -33.572545 127.970162 -1.351601 10.893609 56.328040 -6.830448 -0.953745 -0.180853 9.709016 -13.428829 2.724118 83.804374 -28.903947 -129.605626 16.215954 7.010899 -32.111795 -4.592121 -45.010859 3.352900 -136.950770 86.168793 -132.365147 -0.343129 -10.087759 -4.766129 0.478220 -0.890025 0.184218 1.914123 -41.119293 6.078230 74.669171 83.621376 64.373871 -6.234870 -13.714725 10.003371 0.439145 1.560853 0.242777
-2.776053 52.214195 33.554348 169.848701 -36.378417 -1.315382 4.173013 24.566372 2.911878 0.510863 3.862787 0.531456 0.834023 6.232342 0.868657 3.202471 20.366815 3.302514 0.624295 14.688350 -1.694196 1.809550 -8.480483 -3.411845 -3.731587 -1.593407 -3.447423 -10.623054 -9.785353 2.409546 -96.193072 -33.721800 127.706258 -1.293398 10.871090 56.088499 -6.871104 -0.891583 -0.150032 9.637324 -13.399673 2.805189 83.833698 -29.033349 -129.338097 16.073237 7.034173 -31.823814 -4.618857 -45.012577 3.358609 -137.226084 86.178762 -132.632072 -0.339698 -10.081262 -4.799941 0.478914 -0.896097 0.189040 1.945747 -41.113459 6.107269 74.562973 83.667086 64.245272 -6.221873 -13.716485 10.028172 0.429940 1.557187 0.234659
